<?xml version="1.0" standalone="no"?>
<!DOCTYPE svg PUBLIC "-//W3C//DTD SVG 20010904//EN"
 "http://www.w3.org/TR/2001/REC-SVG-20010904/DTD/svg10.dtd">
<svg version="1.0" xmlns="http://www.w3.org/2000/svg"
 width="152.000000pt" height="135.000000pt" viewBox="0 0 152.000000 135.000000"
 preserveAspectRatio="xMidYMid meet">

<g transform="translate(0.000000,135.000000) scale(0.100000,-0.100000)"
fill="#000000" stroke="none">
<path d="M357 739 l-318 -551 43 -76 43 -77 640 -2 640 -3 40 73 c22 39 40 77
40 83 0 6 -142 257 -315 557 l-315 546 -90 1 -90 0 -318 -551z m778 0 c165
-286 302 -525 303 -530 2 -5 -201 -9 -512 -9 -344 0 -516 3 -516 10 0 6 11 28
25 50 l25 40 401 0 c346 0 400 2 396 15 -3 7 -125 221 -271 474 -147 253 -266
463 -266 466 0 3 26 5 58 5 l57 0 300 -521z m-186 49 c138 -240 251 -440 251
-443 0 -3 -26 -5 -57 -3 l-58 3 -195 339 c-108 186 -200 338 -204 338 -5 0
-129 -208 -275 -462 -147 -254 -271 -463 -275 -464 -4 0 -19 19 -33 44 l-25
45 303 527 c167 290 307 524 310 520 4 -4 120 -204 258 -444z m-235 136 c14
-26 26 -51 26 -56 0 -5 -88 -161 -195 -347 -107 -187 -195 -342 -195 -345 0
-3 246 -6 546 -6 l545 0 -27 -50 -27 -50 -609 0 -609 0 33 58 c127 223 483
841 485 842 1 0 13 -21 27 -46z m197 -342 l137 -237 -139 -3 c-76 -1 -202 -1
-281 0 l-144 3 140 242 c77 134 142 240 145 237 3 -2 67 -111 142 -242z"/>
</g>
</svg>
