<svg width="216" height="216" viewBox="0 0 216 216" fill="none" xmlns="http://www.w3.org/2000/svg">
    <path d="M174.385 0C159.82 0 147.019 19.4014 139.588 48.7897C132.077 75.1505 125.855 102.324 108.02 102.324C88.8573 102.324 82.5358 80.0424 72.6275 61.8593C72.5086 61.6193 72.3699 61.3794 72.251 61.1579C64.6415 47.4052 53.7424 38.7844 41.6147 38.7844C18.6275 38.7659 0 69.7602 0 107.991C0 146.221 18.6275 177.216 41.6147 177.216C53.7424 177.216 64.6415 168.595 72.251 154.842C72.3699 154.602 72.5086 154.381 72.6275 154.141C82.5358 135.958 88.8573 113.676 108.02 113.676C125.855 113.676 132.077 140.85 139.588 167.21C147.019 196.58 159.82 216 174.385 216C197.372 216 216 167.653 216 108.009C216 48.3651 197.372 0 174.385 0Z" fill="black"/>
    </svg>
    